<svg xmlns="http://www.w3.org/2000/svg" viewBox="0 0 128 128">
  <circle cx="64" cy="66" r="49" fill="#b8b8b8" stroke="#33261f" stroke-width="7"/>
  <path d="M18 58c6-29 25-42 46-42s40 13 46 42c-12-5-22-5-33-1-9 3-17 3-26 0-11-4-21-4-33 1z" fill="#5a5752"/>
  <path d="M39 67l17-8M89 67l-17-8" stroke="#33261f" stroke-width="6" stroke-linecap="round"/>
  <path d="M50 92c10-8 18-8 28 0" fill="none" stroke="#33261f" stroke-width="5" stroke-linecap="round"/>
  <circle cx="38" cy="83" r="5" fill="#e58f88" opacity=".65"/><circle cx="90" cy="83" r="5" fill="#e58f88" opacity=".65"/>
  <g transform="translate(88 82)" stroke="#33261f" stroke-width="4" stroke-linecap="round">
    <path d="M15 0l9-8M15 0l10 7M15 0l-1-12M15 0l-10-6M15 0l-8 10" fill="none"/>
    <circle cx="15" cy="0" r="8" fill="#ff654f"/>
  </g>
</svg>
