<svg xmlns="http://www.w3.org/2000/svg" viewBox="0 0 128 128">
  <filter id="wiggle"><feTurbulence baseFrequency=".055" numOctaves="2" seed="23"/><feDisplacementMap in="SourceGraphic" scale="1.25"/></filter>
  <g filter="url(#wiggle)" stroke="#32261f" stroke-width="6" stroke-linecap="round" stroke-linejoin="round">
    <path d="M22 66c0-28 17-45 42-45s42 17 42 45c0 27-17 44-42 44-25 0-42-17-42-44z" fill="#ffd8a8"/>
    <path d="M23 58c7-25 20-37 41-37s35 12 42 37c-10-5-20-5-31-1-10 4-21 3-31-1-8-3-15-2-21 2z" fill="#3f302d"/>
    <path d="M42 72c5-4 12-4 17 0M69 72c5-4 12-4 17 0" fill="none"/>
    <path d="M54 94c7-5 15-5 22 0" fill="none"/>
    <path d="M91 42h18v25H91z" fill="#ffb15a"/>
    <path d="M100 48v9" fill="none"/><circle cx="100" cy="63" r="1" fill="#32261f"/>
    <circle cx="39" cy="85" r="5" fill="#ff9289" stroke="none"/><circle cx="89" cy="85" r="5" fill="#ff9289" stroke="none"/>
  </g>
</svg>
