<svg xmlns="http://www.w3.org/2000/svg" viewBox="0 0 128 128">
  <filter id="wiggle"><feTurbulence baseFrequency=".052" numOctaves="2" seed="19"/><feDisplacementMap in="SourceGraphic" scale="1.15"/></filter>
  <g filter="url(#wiggle)" stroke="#32261f" stroke-width="6" stroke-linecap="round" stroke-linejoin="round">
    <path d="M22 67c0-27 18-44 42-44s42 17 42 44c0 26-17 42-42 42-24 0-42-16-42-42z" fill="#ffd8a8"/>
    <path d="M24 57c6-22 20-34 40-34s33 12 40 34c-9-5-18-5-28-2-9 3-18 3-27 0-10-3-18-3-25 2z" fill="#3c322e"/>
    <circle cx="49" cy="72" r="4" fill="#32261f"/><circle cx="79" cy="72" r="4" fill="#32261f"/>
    <path d="M54 89c6 4 14 4 20 0" fill="none"/>
    <circle cx="39" cy="84" r="6" fill="#ff9a8f" stroke="none"/><circle cx="89" cy="84" r="6" fill="#ff9a8f" stroke="none"/>
    <path d="M40 108c14 6 35 6 49 0" fill="none" stroke="#9aa4ad"/>
  </g>
</svg>
