<svg xmlns="http://www.w3.org/2000/svg" viewBox="0 0 128 128">
  <circle cx="64" cy="66" r="49" fill="#ffd7a3" stroke="#33261f" stroke-width="7"/>
  <path d="M18 57c5-30 24-42 46-42s41 12 46 42c-12-5-21-5-33-1-9 3-17 3-26 0-12-4-21-4-33 1z" fill="#3b312b"/>
  <rect x="29" y="56" width="30" height="18" rx="8" fill="#111" stroke="#33261f" stroke-width="4"/>
  <rect x="69" y="56" width="30" height="18" rx="8" fill="#111" stroke="#33261f" stroke-width="4"/>
  <path d="M59 64h10" stroke="#33261f" stroke-width="4"/>
  <path d="M51 89c9 7 18 7 27 0" fill="none" stroke="#33261f" stroke-width="5" stroke-linecap="round"/>
  <circle cx="37" cy="83" r="6" fill="#ff9d8f" opacity=".75"/><circle cx="91" cy="83" r="6" fill="#ff9d8f" opacity=".75"/>
  <circle cx="100" cy="98" r="17" fill="#60c7e8" stroke="#33261f" stroke-width="5"/>
  <path d="M90 99c8-13 14-13 21 0M90 99c8 13 14 13 21 0" fill="none" stroke="#fff" stroke-width="4" stroke-linecap="round"/>
</svg>
