<svg xmlns="http://www.w3.org/2000/svg" viewBox="0 0 128 128">
  <filter id="wiggle"><feTurbulence baseFrequency=".05" numOctaves="2" seed="33"/><feDisplacementMap in="SourceGraphic" scale="1.2"/></filter>
  <g filter="url(#wiggle)" stroke="#32261f" stroke-width="6" stroke-linecap="round" stroke-linejoin="round">
    <path d="M25 108c5-20 18-31 39-31s35 11 39 31z" fill="#9be65e"/>
    <path d="M30 55c0-25 14-40 34-40s34 15 34 40c0 24-14 40-34 40S30 79 30 55z" fill="#ffd8b6"/>
    <path d="M28 57c4-28 17-43 37-43s32 14 35 41c-8-10-17-14-28-14-8 10-23 17-44 16z" fill="#5ab857"/>
    <circle cx="52" cy="61" r="4" fill="#32261f"/><circle cx="78" cy="61" r="4" fill="#32261f"/>
    <path d="M56 76c5 4 13 4 18 0" fill="none"/>
    <path d="M91 30c8-8 18-6 23 3-8 0-15 3-20 10" fill="#c7ff84"/>
    <circle cx="45" cy="73" r="5" fill="#ff9b93" stroke="none"/><circle cx="86" cy="73" r="5" fill="#ff9b93" stroke="none"/>
  </g>
</svg>
